<?xml version="1.0" encoding="UTF-8"?><svg id="Laag_2" xmlns="http://www.w3.org/2000/svg" viewBox="0 0 126.38 74.81"><defs><style>.cls-1{fill:#1d1d1b;}</style></defs><path class="cls-1" d="m104.88,4.98s-39.67,4.55-44.7,19.41-13.78,40.46-30.72,43.94C11.51,72.01,9.73,27.68,7.84,20.6c-1.74-6.48-5.59-8.97-5.59-8.97,0,0,10.52-11.26,20.77-2.53,9.5,8.09,4.05,34.22,6.35,45.07.51,2.42,3.73,2.95,4.99.83,3.16-5.29,5.18-21.56,4.04-36.53-.59-7.78,5.54-14.43,13.35-14.3l53.14.83Z"/><path class="cls-1" d="m63.19,21.74s24.3-16.44,40.86-14.41c16.56,2.02,19.85,25.93-.51,29.03,0,0,19.2.69,18.26,17s-19.9,16.94-34.82,14.41-19.1.57-19.1.57c0,0,1.01-38.07-.43-43.22s16.48-5.19,19.39-2.7v38.09s13.92,2.83,14.05-9.56c.13-12.39-9.47-12.52-11.44-12.71,0,0-.76-.81,3.06-1.89s9.13-8.04,6.1-12.97c-3.03-4.93-18.63-13.15-35.43-1.64Z"/></svg>